<?xml version="1.0" encoding="iso-8859-1"?>
<!-- Generator: Adobe Illustrator 16.0.0, SVG Export Plug-In . SVG Version: 6.00 Build 0)  -->
<!DOCTYPE svg PUBLIC "-//W3C//DTD SVG 1.1//EN" "http://www.w3.org/Graphics/SVG/1.1/DTD/svg11.dtd">
<svg version="1.1" xmlns="http://www.w3.org/2000/svg" xmlns:xlink="http://www.w3.org/1999/xlink" x="0px" y="0px" width="512px"
	 height="512px" viewBox="0 0 512 512" style="enable-background:new 0 0 512 512;" xml:space="preserve">
<g id="Guides_For_Artboard">
</g>
<g id="Artwork">
</g>
<g id="Layer_3">
	<g>
		<circle style="fill:#E6A52E;" cx="255.116" cy="255.699" r="245"/>
		<g>
			<path style="fill:#735542;" d="M374.203,138.787c-29.349-29.895-106.459-1.788-172.227,62.78
				c-65.771,64.569-95.298,141.151-65.948,171.045c29.346,29.895,106.46,1.784,172.23-62.784
				C374.03,245.258,403.552,168.681,374.203,138.787z M236.043,338.947c-1.265-2.329-3.094-5.722-5.562-9.744
				c-4.838-8.087-12.396-18.801-21.627-28.085c-9.105-9.412-19.663-17.172-27.665-22.16c-3.983-2.539-7.346-4.424-9.651-5.731
				c-2.328-1.3-1.487-2.109,1.903-1.869c3.397,0.232,8.082,0.822,13.297,2.151c10.453,2.574,22.623,8.759,31.735,18.163
				c9.244,9.272,15.213,21.548,17.586,32.05c1.231,5.241,1.734,9.937,1.9,13.342C238.137,340.469,237.299,341.29,236.043,338.947z
				 M288.171,287.772c-1.268-2.324-3.093-5.722-5.562-9.746c-4.84-8.085-12.403-18.794-21.63-28.084
				c-9.104-9.411-19.661-17.171-27.665-22.158c-3.984-2.539-7.349-4.425-9.652-5.73c-2.326-1.301-1.485-2.109,1.906-1.87
				c3.395,0.232,8.078,0.822,13.297,2.15c10.457,2.573,22.621,8.757,31.732,18.165c9.241,9.274,15.214,21.543,17.588,32.051
				c1.232,5.238,1.733,9.936,1.895,13.344C290.266,289.29,289.426,290.115,288.171,287.772z M340.297,236.598
				c-1.27-2.325-3.093-5.719-5.562-9.746c-4.837-8.085-12.398-18.799-21.63-28.083c-9.105-9.411-19.66-17.171-27.664-22.16
				c-3.984-2.541-7.348-4.426-9.652-5.731c-2.324-1.298-1.486-2.108,1.907-1.868c3.395,0.231,8.078,0.821,13.296,2.152
				c10.451,2.574,22.62,8.759,31.735,18.16c9.237,9.279,15.214,21.547,17.586,32.052c1.234,5.242,1.729,9.941,1.897,13.343
				C342.391,238.117,341.552,238.942,340.297,236.598z"/>
			<path style="fill:#5B4232;" d="M340.313,221.373c-2.372-10.505-8.349-22.773-17.586-32.052
				c-9.115-9.4-21.284-15.585-31.735-18.16c-5.218-1.331-9.901-1.921-13.296-2.152c-3.394-0.241-4.231,0.569-1.907,1.868
				c2.305,1.306,5.668,3.191,9.652,5.731c8.004,4.989,18.559,12.749,27.664,22.16c9.231,9.284,16.793,19.998,21.63,28.083
				c2.469,4.026,4.292,7.421,5.562,9.746c1.255,2.344,2.094,1.519,1.914-1.881C342.042,231.314,341.548,226.615,340.313,221.373z"/>
			<path style="fill:#5B4232;" d="M288.187,272.55c-2.374-10.508-8.347-22.777-17.588-32.051
				c-9.111-9.407-21.275-15.592-31.732-18.165c-5.22-1.328-9.903-1.918-13.297-2.15c-3.392-0.24-4.232,0.568-1.906,1.87
				c2.303,1.306,5.668,3.191,9.652,5.73c8.003,4.987,18.56,12.747,27.665,22.158c9.227,9.291,16.79,20,21.63,28.084
				c2.469,4.024,4.294,7.422,5.562,9.746c1.255,2.343,2.095,1.518,1.91-1.879C289.92,282.485,289.419,277.788,288.187,272.55z"/>
			<path style="fill:#5B4232;" d="M236.061,323.722c-2.374-10.502-8.342-22.778-17.586-32.05
				c-9.112-9.404-21.282-15.588-31.735-18.163c-5.216-1.33-9.9-1.919-13.297-2.151c-3.391-0.24-4.231,0.568-1.903,1.869
				c2.305,1.307,5.667,3.192,9.651,5.731c8.001,4.988,18.559,12.749,27.665,22.16c9.231,9.285,16.789,19.998,21.627,28.085
				c2.468,4.022,4.297,7.415,5.562,9.744c1.256,2.342,2.094,1.521,1.917-1.883C237.794,333.659,237.292,328.963,236.061,323.722z"/>
		</g>
	</g>
</g>
</svg>
